<svg xmlns="http://www.w3.org/2000/svg" version="1.1" xmlns:xlink="http://www.w3.org/1999/xlink" xmlns:svgjs="http://svgjs.dev/svgjs" width="1500" height="1500" viewBox="0 0 1500 1500"><g transform="matrix(1,0,0,1,0,0)"><svg viewBox="0 0 280 280" data-background-color="#ffffff" preserveAspectRatio="xMidYMid meet" height="1500" width="1500" xmlns="http://www.w3.org/2000/svg" xmlns:xlink="http://www.w3.org/1999/xlink"><g id="tight-bounds" transform="matrix(1,0,0,1,0,0)"><svg viewBox="0 0 280 280" height="280" width="280"><g><svg viewBox="0 0 280 280" height="280" width="280"><g><svg viewBox="0 0 280 280" height="280" width="280"><g id="textblocktransform"><svg viewBox="0 0 280 280" height="280" width="280" id="textblock"><g><svg viewBox="0 0 280 280" height="280" width="280"><g transform="matrix(1,0,0,1,57.50420886156945,57.50420886156945)"><svg viewBox="0 0 164.9915822768611 164.9915822768611" height="164.9915822768611" width="164.9915822768611"><g id="icon-0"><circle r="82" cx="82.49579113843055" cy="82.49579113843055" fill="#ed2647" data-fill-palette-color="accent"></circle><svg xmlns="http://www.w3.org/2000/svg" xmlns:xlink="http://www.w3.org/1999/xlink" version="1.1" x="24.74873734152917" y="24.748737341529164" viewBox="6.3 6.700000000000001 50.43923048454134 50.099999999999994" style="enable-background:new 0 0 64 64;" xml:space="preserve" height="115.49410759380275" width="115.49410759380275" class="icon-xg-0" data-fill-palette-color="quaternary" id="xg-0"><g fill="#ffffff" data-fill-palette-color="quaternary"><g fill="#ffffff" data-fill-palette-color="quaternary"><circle cx="18.2" cy="45" r="6.9" fill="#ffffff" data-fill-palette-color="quaternary"></circle><path d="M56.5 42.5C56.5 42.5 56.5 42.5 56.5 42.5 56.5 42.5 56.5 42.5 56.5 42.5c-0.1-0.6-0.3-1-0.4-1.5-1.3-4.5-5.3-18.1-6.7-23.7-1.3-5-2.7-10.6-8.7-10.6-3.4 0-7.5 1.6-7.5 9.1v10.3H30V15.8c0-7.5-4.1-9.1-7.5-9.1-6.1 0-7.5 5.6-8.7 10.6C12.4 22.9 8.4 36.5 7 41c-0.2 0.5-0.3 0.9-0.4 1.4 0 0 0 0.1 0 0.1 0 0 0 0 0 0-0.2 0.8-0.3 1.6-0.3 2.5 0 6.5 5.3 11.8 11.8 11.8S30 51.5 30 45V39h3.1V45c0 6.5 5.3 11.8 11.8 11.8 6.5 0 11.8-5.3 11.8-11.8C56.8 44.1 56.7 43.3 56.5 42.5zM40.6 8.8c3.3 0 4.8 2.2 5.9 5.9-1.6-0.9-3.5-1.5-5.5-1.5-2.1 0-4.2 0.8-5.9 2.1C35.3 9.5 38.3 8.8 40.6 8.8zM22.5 8.8c2.3 0 5.3 0.7 5.5 6.5-1.7-1.4-3.8-2.1-5.9-2.1-2 0-3.9 0.5-5.5 1.5C17.7 11 19.2 8.8 22.5 8.8zM18.2 54.8c-5.4 0-9.8-4.4-9.8-9.8 0-0.7 0.1-1.4 0.2-2 0-0.1 0.2-0.6 0.4-1.4 1.4-3.8 5-6.4 9.2-6.4 5.4 0 9.8 4.4 9.8 9.8S23.6 54.8 18.2 54.8zM18.2 33.2c-2.9 0-5.5 1-7.5 2.7 1.7-5.8 4-13.7 5-17.8 1.4-1.8 3.8-2.9 6.5-2.9 2.2 0 4.4 1.1 5.9 3v20.3C25.9 35.3 22.3 33.2 18.2 33.2zM30 37v-8.8h3.1V37H30zM35.1 18.1c1.6-1.9 3.7-3 5.9-3 2.6 0 5 1.1 6.4 2.9 1 4 3.3 12 5 17.8-2-1.7-4.7-2.7-7.5-2.7-4.1 0-7.7 2.1-9.8 5.3V18.1zM44.9 54.8c-5.4 0-9.8-4.4-9.8-9.8s4.4-9.8 9.8-9.8c4.2 0 7.8 2.7 9.2 6.4 0.2 0.7 0.4 1.2 0.4 1.4 0.1 0.6 0.2 1.3 0.2 2C54.8 50.4 50.4 54.8 44.9 54.8z" fill="#ffffff" data-fill-palette-color="quaternary"></path><circle cx="44.9" cy="45" r="7.1" fill="#ffffff" data-fill-palette-color="quaternary"></circle></g></g></svg></g></svg></g><g id="text-0"><path d="M10.037 92.054l3.952 6.406 9.281-3.064c0.171-0.059 0.353-0.209 0.546-0.448 0.2-0.237 0.381-0.502 0.542-0.795 0.161-0.293 0.281-0.527 0.36-0.703v0c0.301 0.048 0.556 0.171 0.765 0.369v0c-0.167 0.399-0.344 0.853-0.532 1.36-0.192 0.499-0.359 0.963-0.5 1.392v0c-0.094 0.286-0.206 0.649-0.335 1.09-0.123 0.442-0.25 0.883-0.38 1.323-0.128 0.434-0.23 0.8-0.306 1.099v0c-0.308-0.05-0.569-0.154-0.784-0.31v0c0.072-0.329 0.129-0.657 0.17-0.982 0.035-0.327 0.025-0.658-0.031-0.993v0l-7.381 2.444-0.492 1.503 5.943 1.946 1.034-1.606c0.301 0.048 0.556 0.171 0.764 0.37v0c-0.169 0.406-0.346 0.859-0.531 1.36-0.194 0.505-0.361 0.969-0.5 1.392v0c-0.141 0.429-0.299 0.957-0.475 1.584-0.181 0.618-0.325 1.147-0.434 1.587v0c-0.308-0.05-0.569-0.154-0.784-0.311v0c0.052-0.314 0.09-0.637 0.112-0.969 0.022-0.331 0.031-0.667 0.027-1.006v0l-13.709-4.492-1.034 1.606c-0.308-0.05-0.563-0.174-0.765-0.369v0c0.149-0.412 0.323-0.866 0.522-1.363 0.201-0.503 0.371-0.966 0.509-1.389v0c0.145-0.442 0.301-0.975 0.469-1.597 0.166-0.616 0.312-1.14 0.44-1.574v0c0.301 0.048 0.563 0.152 0.784 0.311v0c-0.076 0.342-0.129 0.678-0.157 1.007-0.022 0.331-0.016 0.654 0.018 0.968v0l6.508 2.132 0.285-0.868-4.773-7.431c-0.215 0.196-0.405 0.433-0.568 0.711-0.157 0.28-0.312 0.579-0.466 0.895v0c-0.308-0.05-0.562-0.177-0.762-0.379v0c0.147-0.406 0.323-0.866 0.529-1.383 0.203-0.51 0.375-0.979 0.516-1.408v0c0.145-0.442 0.26-0.848 0.344-1.217 0.085-0.368 0.191-0.769 0.319-1.203v0c0.301 0.048 0.563 0.152 0.784 0.311v0c-0.042 0.173-0.08 0.42-0.113 0.741-0.037 0.312-0.038 0.643-0.002 0.994 0.036 0.35 0.133 0.67 0.291 0.959z" fill="#ff0000" data-fill-palette-color="primary"></path><path d="M16.869 83.653l1.44 0.771 0.028-0.01c-0.36-1.023-0.491-1.967-0.395-2.832 0.093-0.859 0.272-1.563 0.535-2.112v0c0.45-0.938 1.071-1.551 1.862-1.84 0.798-0.285 1.709-0.182 2.733 0.309v0l6.97 3.322 1.164-1.309c0.292 0.087 0.529 0.242 0.71 0.466v0c-0.22 0.38-0.443 0.782-0.669 1.205-0.232 0.42-0.446 0.834-0.641 1.241v0c-0.192 0.401-0.384 0.833-0.576 1.295-0.195 0.453-0.374 0.891-0.539 1.313v0c-0.298-0.09-0.544-0.227-0.737-0.41v0c0.077-0.32 0.136-0.607 0.174-0.862 0.033-0.258 0.057-0.515 0.075-0.773v0l-5.98-2.869c-0.987-0.474-1.742-0.65-2.264-0.528-0.515 0.125-0.933 0.52-1.253 1.187v0c-0.255 0.531-0.402 1.098-0.44 1.702-0.033 0.607 0.081 1.216 0.342 1.827v0l7.285 3.495 1.133-1.244c0.292 0.087 0.529 0.242 0.71 0.466v0c-0.22 0.38-0.438 0.769-0.651 1.168-0.223 0.402-0.432 0.806-0.628 1.213v0c-0.192 0.401-0.392 0.848-0.598 1.342-0.209 0.484-0.395 0.934-0.557 1.35v0c-0.298-0.09-0.546-0.224-0.741-0.401v0c0.05-0.295 0.105-0.591 0.164-0.89 0.063-0.289 0.106-0.568 0.129-0.837v0l-8.452-4.056-1.038 1.712c-0.311-0.096-0.546-0.254-0.706-0.476v0c0.168-0.572 0.321-1.137 0.46-1.693 0.144-0.553 0.278-1.085 0.401-1.595v0c0.131-0.241 0.314-0.457 0.55-0.647z" fill="#ff0000" data-fill-palette-color="primary"></path><path d="M27.881 75.232v0c-1.057-0.672-1.867-1.478-2.429-2.418-0.566-0.935-0.84-1.94-0.822-3.016 0.014-1.069 0.352-2.124 1.012-3.164v0c0.672-1.057 1.487-1.817 2.445-2.279 0.962-0.468 1.986-0.644 3.073-0.53 1.091 0.109 2.165 0.499 3.222 1.171v0c1.081 0.686 1.902 1.5 2.464 2.441 0.566 0.935 0.833 1.932 0.801 2.99-0.022 1.056-0.369 2.113-1.04 3.171v0c-0.661 1.04-1.466 1.798-2.417 2.272-0.948 0.484-1.966 0.669-3.053 0.555-1.091-0.109-2.176-0.506-3.256-1.193zM33.267 67.365v0c-0.907-0.576-1.792-0.996-2.654-1.26-0.872-0.262-1.663-0.318-2.374-0.17-0.714 0.154-1.295 0.584-1.743 1.289v0c-0.455 0.717-0.602 1.426-0.44 2.129 0.162 0.703 0.546 1.369 1.152 1.997 0.603 0.634 1.337 1.227 2.204 1.778v0c0.786 0.499 1.584 0.864 2.395 1.094 0.81 0.231 1.565 0.256 2.263 0.076 0.689-0.179 1.252-0.612 1.689-1.3v0c0.466-0.734 0.629-1.437 0.489-2.11-0.137-0.679-0.482-1.316-1.037-1.911-0.551-0.601-1.199-1.139-1.944-1.612z" fill="#ff0000" data-fill-palette-color="primary"></path><path d="M49.715 57.314l-8.537-3.429 4.333 7.732c-0.026 0.123-0.093 0.305-0.203 0.545-0.11 0.231-0.213 0.4-0.308 0.509v0l-11.552-4.206-1.578 1.075c-0.258-0.162-0.445-0.375-0.56-0.638v0c0.303-0.317 0.641-0.667 1.012-1.052 0.377-0.38 0.714-0.74 1.011-1.08v0c0.306-0.351 0.628-0.746 0.967-1.187 0.344-0.436 0.654-0.828 0.932-1.177v0c0.264 0.166 0.464 0.364 0.6 0.593v0c-0.137 0.262-0.277 0.526-0.419 0.792-0.137 0.271-0.238 0.528-0.304 0.771v0l4.959 1.969c0.533 0.211 1.083 0.445 1.649 0.703 0.566 0.257 1.095 0.515 1.588 0.772v0l0.047-0.054c-0.328-0.477-0.655-0.967-0.98-1.469-0.321-0.507-0.611-0.992-0.871-1.454v0l-2.089-3.853-0.982-0.421-1.585 1.083c-0.258-0.162-0.443-0.377-0.554-0.646v0c0.299-0.311 0.628-0.652 0.986-1.021 0.363-0.364 0.693-0.717 0.991-1.057v0c0.306-0.351 0.599-0.713 0.879-1.086 0.281-0.364 0.562-0.722 0.844-1.076v0c0.264 0.166 0.464 0.364 0.6 0.592v0c-0.137 0.262-0.282 0.526-0.433 0.794-0.156 0.273-0.253 0.529-0.29 0.769v0l5.014 2.235c0.556 0.258 1.104 0.505 1.644 0.739 0.54 0.235 1.076 0.489 1.609 0.764v0l0.047-0.054c-0.327-0.458-0.643-0.924-0.946-1.398-0.294-0.475-0.592-0.957-0.892-1.446v0l-2.966-4.863-1.585 1.083c-0.258-0.162-0.443-0.377-0.553-0.646v0c0.299-0.311 0.578-0.595 0.837-0.851 0.264-0.251 0.543-0.544 0.835-0.879v0c0.306-0.351 0.577-0.687 0.812-1.009 0.236-0.312 0.492-0.642 0.769-0.991v0c0.268 0.161 0.471 0.356 0.608 0.585v0c-0.151 0.277-0.3 0.547-0.447 0.809-0.147 0.262-0.25 0.526-0.31 0.792v0l5.878 10.24c-0.03 0.128-0.097 0.315-0.202 0.559-0.109 0.25-0.211 0.429-0.305 0.538z" fill="#ff0000" data-fill-palette-color="primary"></path><path d="M62.125 34.826l3.91 5.218 1.966-0.87c0.219 0.212 0.354 0.462 0.406 0.748v0c-0.366 0.231-0.801 0.523-1.307 0.876-0.509 0.347-0.945 0.657-1.306 0.928v0c-0.356 0.267-0.786 0.606-1.29 1.018-0.508 0.406-0.933 0.759-1.274 1.057v0c-0.223-0.218-0.378-0.453-0.464-0.705v0c0.229-0.231 0.455-0.465 0.68-0.702 0.221-0.242 0.41-0.521 0.567-0.835v0l-3.62-4.832-9.163-3.617-1.769 0.722c-0.223-0.218-0.361-0.465-0.414-0.741v0c0.353-0.248 0.784-0.54 1.292-0.879 0.508-0.338 0.943-0.642 1.304-0.913v0c0.247-0.185 0.525-0.406 0.836-0.665 0.32-0.257 0.644-0.517 0.97-0.778 0.322-0.267 0.594-0.492 0.816-0.675v0c0.219 0.212 0.374 0.447 0.463 0.705v0c-0.229 0.231-0.458 0.467-0.688 0.708-0.23 0.241-0.422 0.521-0.575 0.842v0l7.266 3.088 0.074-0.056-0.898-7.859-1.768 0.722c-0.223-0.218-0.361-0.465-0.415-0.742v0c0.359-0.252 0.735-0.503 1.128-0.755 0.393-0.252 0.768-0.511 1.124-0.778v0c0.373-0.279 0.71-0.553 1.012-0.823 0.297-0.265 0.623-0.539 0.976-0.821v0c0.219 0.212 0.374 0.447 0.464 0.705v0c-0.24 0.239-0.486 0.493-0.74 0.759-0.249 0.272-0.451 0.556-0.606 0.852v0z" fill="#ff0000" data-fill-palette-color="primary"></path><path d="M70.516 30.907v0c-0.627-1.084-0.972-2.174-1.036-3.268-0.069-1.091 0.153-2.109 0.666-3.054 0.507-0.942 1.294-1.721 2.36-2.338v0c1.084-0.627 2.158-0.924 3.222-0.89 1.069 0.03 2.059 0.347 2.97 0.951 0.917 0.601 1.689 1.443 2.316 2.528v0c0.641 1.108 0.993 2.209 1.056 3.303 0.069 1.091-0.155 2.098-0.672 3.022-0.508 0.926-1.304 1.703-2.389 2.331v0c-1.067 0.617-2.131 0.916-3.193 0.897-1.065-0.009-2.053-0.315-2.964-0.919-0.917-0.601-1.695-1.455-2.336-2.563zM78.929 26.421v0c-0.538-0.93-1.128-1.712-1.771-2.345-0.652-0.635-1.327-1.051-2.026-1.247-0.705-0.193-1.419-0.081-2.142 0.337v0c-0.735 0.425-1.193 0.986-1.374 1.684-0.181 0.698-0.149 1.466 0.098 2.304 0.241 0.841 0.619 1.706 1.133 2.594v0c0.466 0.806 1.005 1.499 1.617 2.078 0.612 0.579 1.269 0.95 1.972 1.113 0.694 0.16 1.393 0.037 2.098-0.371v0c0.753-0.435 1.222-0.984 1.409-1.645 0.193-0.665 0.181-1.39-0.035-2.174-0.21-0.788-0.537-1.564-0.979-2.328z" fill="#ff0000" data-fill-palette-color="primary"></path><path d="M92.146 13.515l4.213 10.002c0.313 0.039 0.612 0.025 0.895-0.043 0.284-0.067 0.563-0.126 0.84-0.175v0c0.158 0.253 0.229 0.527 0.213 0.824v0c-0.215 0.142-0.476 0.297-0.785 0.464-0.302 0.164-0.624 0.318-0.964 0.462v0c-0.473 0.199-0.905 0.329-1.295 0.389v0l-1.072-1.487-0.114 0.048c-0.464 0.998-0.962 1.764-1.493 2.3-0.532 0.536-1.173 0.962-1.924 1.278v0c-1.066 0.449-1.956 0.478-2.67 0.089-0.71-0.399-1.283-1.116-1.719-2.151v0l-2.854-6.775-1.694 0.501c-0.169-0.278-0.243-0.551-0.223-0.819v0c0.504-0.302 0.969-0.601 1.393-0.899 0.415-0.301 0.829-0.606 1.243-0.913v0c0.15-0.049 0.3-0.082 0.448-0.1 0.148-0.018 0.313-0.024 0.493-0.018v0l3.268 7.759c0.26 0.618 0.544 1.037 0.853 1.257 0.308 0.219 0.639 0.31 0.994 0.272 0.352-0.029 0.726-0.128 1.124-0.295v0c0.473-0.199 0.909-0.55 1.306-1.052 0.4-0.495 0.69-1.007 0.869-1.535v0l-3.005-7.135-1.694 0.501c-0.169-0.278-0.24-0.553-0.213-0.823v0c0.498-0.299 0.959-0.597 1.383-0.895 0.415-0.301 0.829-0.606 1.242-0.913v0c0.15-0.049 0.3-0.082 0.449-0.1 0.155-0.021 0.319-0.027 0.493-0.018z" fill="#ff0000" data-fill-palette-color="primary"></path><path d="M102.021 14.32l1.979 6.61 2.381-0.209c0.132 0.275 0.173 0.555 0.123 0.842v0c-0.281 0.063-0.627 0.148-1.037 0.257-0.41 0.109-0.819 0.213-1.225 0.313-0.404 0.107-0.753 0.204-1.049 0.293v0c-0.426 0.128-0.891 0.281-1.395 0.46-0.499 0.171-0.957 0.336-1.373 0.497v0c-0.134-0.281-0.202-0.554-0.202-0.818v0c0.272-0.167 0.539-0.322 0.804-0.466 0.262-0.15 0.486-0.31 0.671-0.48v0l-2.689-8.981-1.964 0.385c-0.138-0.294-0.179-0.575-0.123-0.842v0c0.527-0.244 1.054-0.501 1.58-0.773 0.531-0.28 1.014-0.55 1.451-0.81v0c0.161-0.034 0.297-0.046 0.407-0.036 0.11 0.01 0.255 0.027 0.434 0.052v0l0.63 2.105 0.025 0.014c0.267-0.852 0.622-1.612 1.065-2.28 0.443-0.669 1.002-1.104 1.677-1.306v0c0.262-0.079 0.524-0.135 0.785-0.171 0.268-0.037 0.548-0.018 0.843 0.059v0c0.215 0.622 0.365 1.231 0.451 1.827 0.086 0.596 0.127 1.187 0.123 1.774v0c-0.108 0.046-0.277 0.101-0.508 0.163-0.231 0.062-0.419 0.079-0.564 0.051v0l-1.004-2.208c-0.538 0.161-1.023 0.521-1.456 1.079-0.426 0.556-0.707 1.423-0.84 2.599z" fill="#ff0000" data-fill-palette-color="primary"></path><path d="M120.56 1.533l0.742 1.167 8.459 8.653c0.305 0.324 0.582 0.671 0.831 1.043 0.243 0.379 0.483 0.765 0.72 1.159v0l0.072-0.008c-0.057-0.386-0.126-0.75-0.207-1.093-0.081-0.349-0.146-0.745-0.196-1.187v0l-1.103-9.578-1.901-0.271c-0.082-0.301-0.073-0.584 0.028-0.851v0c0.43-0.035 0.827-0.056 1.191-0.062 0.364-0.007 0.768-0.035 1.21-0.085v0c0.463-0.052 0.903-0.119 1.321-0.201 0.418-0.082 0.851-0.155 1.298-0.219v0c0.081 0.294 0.096 0.575 0.043 0.842v0c-0.313 0.097-0.622 0.198-0.927 0.302-0.313 0.097-0.622 0.229-0.927 0.394v0l1.81 16.008c-0.057 0.041-0.124 0.09-0.2 0.147-0.076 0.057-0.16 0.104-0.253 0.142v0l-10.872-10.985c-0.297-0.311-0.576-0.644-0.837-1.001-0.268-0.356-0.544-0.727-0.829-1.115v0l-0.071 0.008c0.103 0.36 0.181 0.751 0.236 1.172 0.054 0.421 0.102 0.808 0.141 1.162v0l1.14 10.081 1.903 0.291c0.082 0.301 0.073 0.584-0.028 0.85v0c-0.432 0.014-0.851 0.031-1.255 0.049-0.398 0.011-0.822 0.041-1.271 0.092v0c-0.442 0.05-0.845 0.109-1.209 0.178-0.365 0.062-0.77 0.135-1.215 0.22v0c-0.082-0.301-0.097-0.582-0.044-0.842v0c0.314-0.084 0.62-0.184 0.917-0.3 0.304-0.117 0.602-0.247 0.896-0.391v0l-1.621-14.335-1.9-0.271c-0.082-0.301-0.073-0.584 0.027-0.85v0c0.43-0.035 0.916-0.066 1.457-0.093 0.534-0.026 1.026-0.064 1.475-0.115v0z" fill="#ff0000" data-fill-palette-color="primary"></path><path d="M140.09 10.427l-0.007 0.483c-0.026 1.615 0.279 2.873 0.915 3.773 0.636 0.9 1.515 1.359 2.637 1.377v0c0.493 0.008 0.907-0.013 1.244-0.062 0.336-0.049 0.67-0.154 1.001-0.313 0.331-0.152 0.708-0.369 1.13-0.649v0c0.258 0.114 0.402 0.308 0.432 0.582v0c-0.509 0.567-1.112 1.006-1.808 1.316-0.69 0.311-1.39 0.46-2.102 0.449v0c-1.211-0.019-2.272-0.293-3.181-0.821-0.902-0.528-1.602-1.279-2.099-2.252-0.498-0.966-0.736-2.114-0.716-3.441v0c0.022-1.369 0.307-2.525 0.857-3.468 0.556-0.943 1.29-1.66 2.201-2.152 0.912-0.492 1.922-0.729 3.031-0.711v0c1.424 0.023 2.47 0.519 3.139 1.488 0.662 0.962 0.981 2.196 0.957 3.702v0c-0.002 0.11-0.003 0.216-0.005 0.318-0.002 0.096-0.01 0.198-0.025 0.308v0l-0.343 0.261zM143.578 5.574v0c-0.459-0.007-0.919 0.129-1.383 0.409-0.463 0.28-0.874 0.708-1.232 1.285-0.365 0.569-0.62 1.294-0.764 2.175v0l5.25-0.203c0.02-1.239-0.099-2.155-0.356-2.748-0.251-0.6-0.756-0.906-1.515-0.918z" fill="#ff0000" data-fill-palette-color="primary"></path><path d="M155.752 5.806l-1.136 10.742 1.552 0.65c0.016 0.305-0.054 0.579-0.211 0.824v0c-0.425-0.079-0.865-0.153-1.318-0.222-0.453-0.075-0.901-0.137-1.344-0.183v0c-0.449-0.048-0.937-0.085-1.464-0.114-0.526-0.035-1.016-0.059-1.469-0.072v0c-0.015-0.311 0.031-0.589 0.139-0.832v0c0.308-0.05 0.612-0.09 0.911-0.121 0.307-0.036 0.578-0.097 0.815-0.182v0l0.985-9.323-1.97-0.405c-0.014-0.325 0.057-0.6 0.211-0.824v0c0.58-0.021 1.169-0.055 1.766-0.102 0.591-0.055 1.141-0.117 1.651-0.187v0c0.155 0.03 0.302 0.073 0.441 0.129 0.139 0.056 0.286 0.13 0.441 0.222zM154.406 3.207v0c-0.272-0.029-0.511-0.144-0.718-0.345-0.206-0.201-0.357-0.434-0.452-0.698-0.102-0.272-0.141-0.521-0.118-0.746v0c0.022-0.204 0.132-0.406 0.333-0.605 0.199-0.192 0.437-0.353 0.711-0.482 0.281-0.122 0.548-0.169 0.8-0.142v0c0.286 0.03 0.531 0.149 0.737 0.356 0.205 0.208 0.356 0.44 0.453 0.699 0.089 0.264 0.122 0.505 0.099 0.722v0c-0.022 0.211-0.127 0.42-0.314 0.628-0.193 0.2-0.43 0.357-0.711 0.472-0.275 0.122-0.548 0.169-0.82 0.141z" fill="#ff0000" data-fill-palette-color="primary"></path><path d="M164.524 15.393v0c-0.289-0.057-0.577-0.134-0.865-0.232-0.294-0.1-0.587-0.227-0.877-0.382v0c-0.207 0.204-0.355 0.37-0.444 0.5-0.095 0.128-0.151 0.239-0.169 0.332v0c-0.029 0.148 0 0.303 0.086 0.467 0.08 0.162 0.342 0.356 0.786 0.583 0.451 0.228 1.198 0.507 2.242 0.837v0c1.03 0.334 1.877 0.671 2.543 1.011 0.671 0.348 1.142 0.775 1.413 1.281 0.276 0.514 0.334 1.181 0.173 2.001v0c-0.138 0.705-0.428 1.276-0.869 1.713-0.448 0.435-0.993 0.761-1.636 0.977-0.649 0.215-1.335 0.335-2.058 0.361-0.722 0.019-1.436-0.041-2.141-0.179v0c-1.196-0.234-2.142-0.566-2.84-0.996-0.69-0.428-1.167-0.916-1.429-1.462-0.255-0.552-0.328-1.104-0.22-1.654v0c0.111-0.564 0.378-1.094 0.803-1.59 0.418-0.497 1.088-0.837 2.01-1.019v0c-0.428-0.558-0.584-1.129-0.47-1.714v0c0.101-0.517 0.282-0.925 0.543-1.223 0.262-0.304 0.544-0.549 0.845-0.734v0c-0.571-0.433-1.015-0.963-1.331-1.59-0.323-0.628-0.405-1.352-0.245-2.171v0c0.147-0.752 0.424-1.361 0.829-1.826 0.397-0.459 0.871-0.799 1.424-1.019 0.552-0.22 1.128-0.344 1.726-0.373 0.605-0.028 1.183 0.012 1.734 0.12v0c0.376 0.074 0.763 0.184 1.16 0.332 0.398 0.141 0.77 0.325 1.115 0.553v0l3.513-1.32c0.114 0.092 0.204 0.26 0.268 0.502 0.072 0.237 0.114 0.486 0.126 0.747 0.013 0.254-0.009 0.455-0.066 0.604v0c-0.451 0.058-0.95 0.096-1.498 0.115-0.541 0.02-1.083-0.01-1.626-0.089v0c0.445 0.401 0.779 0.899 1.005 1.495 0.231 0.603 0.269 1.298 0.115 2.083v0c-0.136 0.692-0.407 1.256-0.813 1.693-0.406 0.437-0.892 0.763-1.458 0.981-0.564 0.21-1.144 0.337-1.738 0.381-0.593 0.037-1.148 0.005-1.666-0.096zM164.7 14.496v0c0.799 0.157 1.514-0.003 2.144-0.48 0.636-0.468 1.042-1.153 1.219-2.052v0c0.191-0.974 0.078-1.788-0.338-2.442-0.409-0.652-1.014-1.057-1.813-1.213v0c-0.806-0.158-1.522-0.012-2.147 0.437-0.625 0.45-1.033 1.161-1.224 2.136v0c-0.176 0.9-0.062 1.686 0.343 2.359 0.404 0.679 1.009 1.098 1.816 1.255zM164.136 19.241v0c-0.273-0.102-0.623-0.22-1.05-0.353-0.421-0.131-0.842-0.297-1.263-0.498v0c-0.438 0.242-0.789 0.522-1.054 0.84-0.27 0.31-0.464 0.764-0.581 1.361v0c-0.13 0.665 0.039 1.312 0.51 1.941 0.463 0.628 1.228 1.046 2.296 1.256v0c0.773 0.151 1.459 0.157 2.058 0.016 0.601-0.147 1.084-0.388 1.449-0.72 0.373-0.338 0.598-0.702 0.675-1.093v0c0.093-0.477 0.005-0.878-0.267-1.203-0.27-0.332-0.656-0.624-1.157-0.875-0.494-0.257-1.032-0.481-1.616-0.672z" fill="#ff0000" data-fill-palette-color="primary"></path><path d="M180.693 5.175l-2.225 6.867 0.118 0.038c0.886-0.404 1.697-0.63 2.432-0.68 0.729-0.052 1.354 0.007 1.876 0.176v0c1.25 0.405 2.056 1.029 2.415 1.872 0.354 0.841 0.357 1.796 0.012 2.864v0l-2.326 7.18 1.503 0.994c-0.047 0.301-0.173 0.556-0.377 0.763v0c-0.4-0.165-0.834-0.335-1.303-0.509-0.46-0.178-0.906-0.336-1.336-0.476v0c-0.423-0.137-0.893-0.275-1.409-0.413-0.508-0.143-0.979-0.267-1.413-0.371v0c0.049-0.308 0.149-0.571 0.299-0.788v0c0.295 0.023 0.592 0.048 0.893 0.073 0.297 0.017 0.582 0.012 0.858-0.014v0l2.214-6.837c0.209-0.645 0.269-1.165 0.182-1.561-0.092-0.404-0.286-0.715-0.583-0.933-0.301-0.227-0.656-0.407-1.067-0.54v0c-0.488-0.158-1.036-0.199-1.644-0.122-0.606 0.07-1.145 0.248-1.619 0.533v0l-2.534 7.825 1.385 0.956c-0.047 0.301-0.173 0.556-0.376 0.763v0c-0.4-0.165-0.815-0.329-1.245-0.49-0.428-0.167-0.853-0.32-1.277-0.456v0c-0.43-0.139-0.9-0.277-1.409-0.414-0.514-0.145-0.988-0.27-1.423-0.374v0c0.049-0.308 0.149-0.571 0.299-0.788v0c0.318 0.017 0.627 0.041 0.926 0.073 0.308 0.028 0.583 0.023 0.825-0.014v0l4.714-14.555-1.839-0.789c0.054-0.321 0.179-0.575 0.377-0.763v0c1.149 0.185 2.244 0.313 3.286 0.384v0c0.146 0.062 0.28 0.134 0.405 0.217 0.124 0.083 0.253 0.186 0.386 0.309z" fill="#ff0000" data-fill-palette-color="primary"></path><path d="M196.717 11.111l-2.936 6.324 0.06 0.164c0.814-0.241 1.539-0.323 2.175-0.247 0.636 0.076 1.203 0.23 1.699 0.461v0c0.944 0.438 1.649 1.049 2.116 1.831 0.467 0.783 0.689 1.686 0.666 2.709-0.022 1.024-0.303 2.116-0.842 3.277v0c-0.588 1.267-1.335 2.218-2.241 2.854-0.909 0.642-1.906 0.983-2.989 1.024-1.092 0.044-2.219-0.204-3.38-0.743v0c-0.596-0.277-1.251-0.671-1.963-1.183-0.71-0.503-1.308-1.026-1.796-1.57v0l6.766-14.575-1.738-1.011c0.092-0.312 0.247-0.549 0.466-0.712v0c0.556 0.168 1.099 0.314 1.63 0.44 0.527 0.116 1.04 0.223 1.539 0.318v0c0.274 0.142 0.529 0.355 0.768 0.639zM193.253 18.865l-3.533 7.609c0.247 0.296 0.511 0.566 0.791 0.809 0.273 0.24 0.658 0.476 1.155 0.706v0c1.031 0.478 2.046 0.421 3.045-0.171 1.002-0.599 1.871-1.69 2.607-3.273v0c0.709-1.527 0.942-2.778 0.699-3.751-0.252-0.97-0.769-1.636-1.551-1.999v0c-0.366-0.17-0.755-0.268-1.166-0.292-0.411-0.025-0.802-0.003-1.174 0.066-0.365 0.072-0.657 0.171-0.873 0.296z" fill="#ff0000" data-fill-palette-color="primary"></path><path d="M202.747 27.309v0c0.655-1.068 1.449-1.89 2.38-2.467 0.926-0.58 1.927-0.87 3.002-0.868 1.07-0.002 2.129 0.319 3.18 0.963v0c1.068 0.655 1.84 1.458 2.317 2.409 0.482 0.955 0.675 1.976 0.577 3.064-0.092 1.092-0.465 2.172-1.12 3.24v0c-0.669 1.091-1.47 1.925-2.402 2.502-0.926 0.58-1.919 0.863-2.978 0.847-1.057-0.006-2.119-0.336-3.186-0.991v0c-1.05-0.644-1.82-1.438-2.31-2.381-0.499-0.941-0.7-1.955-0.602-3.043 0.092-1.092 0.472-2.184 1.142-3.275zM210.697 32.572v0c0.562-0.916 0.968-1.807 1.218-2.674 0.248-0.876 0.292-1.668 0.133-2.376-0.166-0.712-0.604-1.286-1.316-1.723v0c-0.724-0.444-1.435-0.579-2.136-0.407-0.7 0.173-1.36 0.567-1.979 1.184-0.625 0.613-1.206 1.356-1.742 2.231v0c-0.487 0.794-0.839 1.597-1.058 2.411-0.218 0.814-0.231 1.569-0.04 2.265 0.189 0.686 0.631 1.242 1.326 1.668v0c0.741 0.455 1.447 0.607 2.117 0.456 0.677-0.147 1.308-0.502 1.895-1.066 0.593-0.56 1.12-1.216 1.582-1.969z" fill="#ff0000" data-fill-palette-color="primary"></path><path d="M228.338 38.052l-6.791 8.466c0.115 0.294 0.27 0.55 0.464 0.767 0.194 0.217 0.379 0.436 0.554 0.655v0c-0.147 0.26-0.354 0.453-0.623 0.58v0c-0.228-0.121-0.488-0.278-0.782-0.47-0.288-0.187-0.577-0.397-0.865-0.628v0c-0.4-0.321-0.72-0.639-0.959-0.954v0l0.797-1.65-0.096-0.077c-1.098 0.067-2.009-0.006-2.734-0.219-0.725-0.213-1.405-0.574-2.04-1.084v0c-0.902-0.724-1.352-1.493-1.348-2.306 0.013-0.815 0.371-1.66 1.073-2.535v0l4.6-5.735-1.247-1.251c0.164-0.281 0.369-0.476 0.615-0.586v0c0.505 0.3 0.99 0.566 1.453 0.798 0.463 0.222 0.927 0.441 1.394 0.657v0c0.114 0.109 0.215 0.225 0.301 0.347 0.086 0.122 0.17 0.264 0.251 0.425v0l-5.268 6.568c-0.42 0.523-0.653 0.972-0.7 1.348-0.046 0.375 0.032 0.71 0.235 1.004 0.193 0.295 0.458 0.578 0.794 0.848v0c0.4 0.321 0.916 0.537 1.547 0.648 0.626 0.116 1.214 0.127 1.764 0.033v0l4.844-6.039-1.247-1.251c0.164-0.281 0.372-0.474 0.623-0.58v0c0.5 0.296 0.982 0.559 1.445 0.791 0.463 0.222 0.927 0.441 1.394 0.658v0c0.114 0.109 0.215 0.225 0.301 0.347 0.092 0.126 0.175 0.268 0.251 0.425z" fill="#ff0000" data-fill-palette-color="primary"></path><path d="M232.33 47.12l-4.871 4.886 1.317 1.995c-0.179 0.247-0.406 0.417-0.681 0.509v0c-0.189-0.218-0.429-0.481-0.721-0.79-0.291-0.309-0.577-0.619-0.858-0.928-0.286-0.304-0.538-0.565-0.756-0.783v0c-0.315-0.314-0.671-0.65-1.069-1.008-0.388-0.358-0.751-0.681-1.091-0.971v0c0.184-0.252 0.391-0.441 0.624-0.567v0c0.276 0.159 0.54 0.321 0.792 0.485 0.257 0.159 0.504 0.28 0.741 0.362v0l6.619-6.639-1.273-1.545c0.193-0.262 0.42-0.431 0.682-0.509v0c0.465 0.348 0.943 0.688 1.431 1.021 0.499 0.333 0.967 0.63 1.403 0.891v0c0.107 0.126 0.182 0.239 0.226 0.341 0.044 0.102 0.097 0.237 0.16 0.406v0l-1.551 1.557 0 0.029c0.876-0.171 1.713-0.22 2.512-0.149 0.799 0.071 1.448 0.356 1.947 0.853v0c0.194 0.193 0.368 0.396 0.524 0.609 0.16 0.218 0.277 0.474 0.349 0.769v0c-0.445 0.485-0.909 0.907-1.392 1.266-0.483 0.359-0.984 0.677-1.501 0.953v0c-0.092-0.072-0.221-0.196-0.386-0.369-0.165-0.174-0.269-0.331-0.312-0.472v0l1.463-1.933c-0.398-0.396-0.945-0.652-1.642-0.767-0.692-0.11-1.588 0.056-2.686 0.498z" fill="#ff0000" data-fill-palette-color="primary"></path><path d="M247.966 49.799l-5.627 4.521 0.077 0.096c0.962 0.149 1.765 0.404 2.407 0.766 0.638 0.357 1.128 0.749 1.472 1.176v0c0.823 1.025 1.154 1.988 0.992 2.891-0.166 0.897-0.687 1.698-1.562 2.4v0l-5.883 4.727 0.711 1.655c-0.205 0.226-0.449 0.37-0.734 0.431v0c-0.243-0.358-0.514-0.738-0.81-1.14-0.287-0.401-0.573-0.778-0.856-1.13v0c-0.279-0.347-0.596-0.72-0.952-1.119-0.346-0.398-0.672-0.76-0.977-1.085v0c0.21-0.23 0.437-0.395 0.682-0.495v0c0.233 0.181 0.469 0.365 0.707 0.551 0.239 0.177 0.48 0.33 0.724 0.459v0l5.603-4.502c0.528-0.424 0.864-0.826 1.008-1.205 0.145-0.388 0.153-0.755 0.025-1.1-0.127-0.355-0.325-0.7-0.596-1.036v0c-0.322-0.4-0.757-0.735-1.307-1.004-0.545-0.274-1.093-0.421-1.646-0.443v0l-6.412 5.152 0.634 1.559c-0.205 0.226-0.449 0.37-0.734 0.431v0c-0.243-0.358-0.501-0.722-0.772-1.092-0.266-0.375-0.538-0.735-0.817-1.082v0c-0.283-0.352-0.6-0.725-0.951-1.119-0.35-0.403-0.678-0.768-0.984-1.093v0c0.21-0.23 0.437-0.395 0.682-0.496v0c0.257 0.189 0.502 0.378 0.734 0.57 0.242 0.192 0.474 0.339 0.697 0.441v0l11.926-9.583-1.103-1.668c0.221-0.239 0.465-0.383 0.733-0.432v0c0.859 0.785 1.705 1.493 2.537 2.125v0c0.088 0.131 0.161 0.266 0.219 0.403 0.058 0.138 0.109 0.294 0.153 0.47z" fill="#ff0000" data-fill-palette-color="primary"></path><path d="M246.327 67.154v0c1.062-0.665 2.138-1.048 3.23-1.149 1.088-0.107 2.113 0.079 3.075 0.558 0.959 0.474 1.765 1.233 2.419 2.277v0c0.665 1.062 0.999 2.125 1.002 3.189 0.007 1.07-0.275 2.07-0.847 3.001-0.568 0.937-1.383 1.738-2.445 2.403v0c-1.085 0.679-2.173 1.07-3.264 1.171-1.088 0.107-2.102-0.081-3.044-0.566-0.944-0.475-1.748-1.244-2.412-2.306v0c-0.654-1.044-0.99-2.098-1.009-3.16-0.028-1.064 0.243-2.062 0.815-2.993 0.568-0.937 1.395-1.745 2.48-2.425zM251.104 75.405v0c0.911-0.57 1.671-1.188 2.282-1.852 0.612-0.674 1.004-1.363 1.176-2.069 0.169-0.711 0.031-1.421-0.412-2.128v0c-0.45-0.719-1.028-1.158-1.732-1.315-0.704-0.157-1.47-0.097-2.298 0.179-0.832 0.271-1.683 0.678-2.554 1.223v0c-0.789 0.494-1.462 1.057-2.02 1.689-0.558 0.632-0.905 1.302-1.043 2.01-0.136 0.699 0.012 1.394 0.444 2.084v0c0.461 0.737 1.026 1.187 1.694 1.35 0.671 0.169 1.395 0.132 2.171-0.111 0.78-0.238 1.544-0.591 2.292-1.06z" fill="#ff0000" data-fill-palette-color="primary"></path><path d="M254.309 80.487v0c1.134-0.533 2.249-0.784 3.344-0.754 1.093 0.024 2.088 0.331 2.986 0.923 0.895 0.585 1.605 1.436 2.128 2.551v0c0.533 1.134 0.737 2.229 0.613 3.286-0.121 1.063-0.521 2.022-1.2 2.878-0.676 0.862-1.582 1.56-2.716 2.092v0c-1.159 0.544-2.286 0.801-3.381 0.771-1.093-0.024-2.077-0.333-2.954-0.926-0.88-0.585-1.586-1.444-2.119-2.579v0c-0.524-1.115-0.731-2.201-0.622-3.258 0.1-1.06 0.489-2.018 1.168-2.874 0.676-0.862 1.594-1.566 2.753-2.11zM258.062 89.251v0c0.973-0.457 1.802-0.979 2.487-1.565 0.688-0.596 1.16-1.233 1.416-1.913 0.253-0.686 0.201-1.407-0.154-2.162v0c-0.361-0.768-0.881-1.273-1.561-1.513-0.68-0.24-1.448-0.273-2.304-0.098-0.859 0.169-1.752 0.471-2.682 0.908v0c-0.843 0.396-1.579 0.874-2.208 1.434-0.629 0.56-1.055 1.184-1.276 1.871-0.219 0.678-0.155 1.385 0.191 2.122v0c0.37 0.787 0.876 1.302 1.519 1.544 0.646 0.249 1.369 0.298 2.169 0.149 0.803-0.143 1.604-0.402 2.403-0.777z" fill="#ff0000" data-fill-palette-color="primary"></path><path d="M256.021 101.453v0c-0.279-0.852-0.278-1.717 0.004-2.595 0.275-0.875 0.794-1.668 1.555-2.378 0.761-0.71 1.721-1.255 2.879-1.634v0c1.327-0.435 2.539-0.572 3.635-0.413 1.105 0.164 2.052 0.592 2.841 1.285 0.791 0.699 1.378 1.634 1.761 2.805v0c0.138 0.423 0.227 0.869 0.266 1.339 0.039 0.47 0.028 0.898-0.033 1.286v0l0.023 0.068 4.391-1.438-0.444-1.95c0.291-0.146 0.57-0.194 0.838-0.145v0c0.527 1.038 1.069 1.998 1.624 2.882v0c0.081 0.29 0.1 0.623 0.057 0.997v0l-15.935 5.218c-0.072 0.175-0.095 0.435-0.069 0.779 0.026 0.344 0.074 0.667 0.144 0.968v0c-0.278 0.141-0.557 0.19-0.839 0.145v0c-0.126-0.232-0.261-0.512-0.404-0.84-0.145-0.334-0.276-0.677-0.391-1.028v0c-0.164-0.501-0.26-0.948-0.288-1.342v0c0.161-0.19 0.328-0.352 0.499-0.488 0.18-0.131 0.369-0.247 0.567-0.348v0l-0.038-0.117c-0.755-0.459-1.332-0.922-1.73-1.389-0.398-0.468-0.702-1.023-0.914-1.667zM257.654 101.955v0c0.196 0.599 0.49 1.068 0.883 1.407 0.388 0.348 0.781 0.616 1.181 0.802v0l7.952-2.604c0.166-0.371 0.241-0.77 0.224-1.197-0.011-0.429-0.087-0.861-0.23-1.297v0c-0.39-1.19-1.135-1.926-2.235-2.207-1.107-0.279-2.431-0.166-3.973 0.34v0c-1.568 0.513-2.676 1.175-3.326 1.986-0.656 0.813-0.814 1.736-0.476 2.77z" fill="#ff0000" data-fill-palette-color="primary"></path><path d="M8.191 140.872c0-1.151 0.933-2.083 2.083-2.083 1.151 0 2.083 0.933 2.083 2.083 0 1.151-0.933 2.083-2.083 2.083-1.151 0-2.083-0.933-2.083-2.083z" fill="#ff0000" data-fill-palette-color="primary"></path><path d="M266.949 140.872c0-1.151 0.933-2.083 2.083-2.083 1.151 0 2.083 0.933 2.084 2.083 0 1.151-0.933 2.083-2.084 2.083-1.151 0-2.083-0.933-2.083-2.083z" fill="#ff0000" data-fill-palette-color="primary"></path></g><g id="text-1"><path d="M27.09 184.103l-6.977-2.825-5.668 7.962c-0.103 0.149-0.161 0.377-0.175 0.684-0.021 0.309-0.01 0.63 0.034 0.961 0.044 0.331 0.086 0.591 0.125 0.78v0c-0.271 0.139-0.55 0.191-0.835 0.155v0c-0.102-0.42-0.227-0.891-0.376-1.411-0.14-0.516-0.281-0.989-0.421-1.418v0c-0.094-0.286-0.219-0.645-0.374-1.077-0.162-0.429-0.321-0.86-0.478-1.291-0.154-0.425-0.288-0.781-0.403-1.068v0c0.278-0.141 0.55-0.213 0.816-0.213v0c0.137 0.308 0.285 0.605 0.443 0.892 0.165 0.284 0.37 0.545 0.613 0.783v0l4.504-6.338-0.492-1.503-5.942 1.947 0.116 1.907c-0.271 0.139-0.55 0.191-0.835 0.154v0c-0.104-0.427-0.229-0.897-0.376-1.411-0.142-0.522-0.283-0.995-0.421-1.418v0c-0.141-0.429-0.325-0.949-0.554-1.558-0.22-0.605-0.416-1.117-0.589-1.536v0c0.278-0.141 0.55-0.213 0.816-0.213v0c0.144 0.284 0.304 0.567 0.482 0.847 0.178 0.28 0.369 0.556 0.574 0.827v0l13.71-4.491-0.117-1.907c0.278-0.141 0.556-0.193 0.835-0.154v0c0.123 0.421 0.252 0.89 0.386 1.408 0.136 0.525 0.273 0.998 0.411 1.421v0c0.145 0.442 0.334 0.964 0.567 1.565 0.231 0.594 0.423 1.104 0.577 1.529v0c-0.271 0.139-0.543 0.21-0.816 0.213v0c-0.141-0.321-0.298-0.623-0.47-0.905-0.178-0.28-0.374-0.537-0.587-0.769v0l-6.508 2.132 0.284 0.868 8.244 3.166c0.058-0.285 0.07-0.588 0.038-0.909-0.039-0.318-0.091-0.651-0.154-0.997v0c0.278-0.141 0.557-0.19 0.838-0.145v0c0.121 0.414 0.252 0.89 0.392 1.427 0.138 0.531 0.277 1.011 0.418 1.441v0c0.145 0.442 0.292 0.837 0.442 1.184 0.15 0.347 0.301 0.733 0.455 1.158v0c-0.271 0.139-0.543 0.21-0.816 0.214v0c-0.068-0.165-0.184-0.386-0.347-0.665-0.154-0.274-0.35-0.541-0.587-0.801-0.237-0.261-0.504-0.462-0.802-0.602z" fill="#ff0000" data-fill-palette-color="primary"></path><path d="M27.53 192.976l-1.503 0.642-0.01 0.027c1.023 0.36 1.842 0.847 2.456 1.464 0.612 0.61 1.049 1.19 1.313 1.739v0c0.45 0.938 0.54 1.806 0.27 2.604-0.276 0.801-0.927 1.447-1.951 1.938v0l-6.953 3.359 0.293 1.727c-0.251 0.173-0.52 0.261-0.808 0.262v0c-0.159-0.41-0.332-0.835-0.521-1.276-0.183-0.444-0.372-0.869-0.567-1.277v0c-0.192-0.401-0.409-0.821-0.65-1.259-0.232-0.435-0.461-0.849-0.687-1.242v0c0.257-0.176 0.517-0.282 0.781-0.318v0c0.201 0.26 0.389 0.485 0.563 0.675 0.181 0.187 0.366 0.367 0.556 0.542v0l5.981-2.87c0.987-0.474 1.597-0.952 1.828-1.435 0.225-0.48 0.178-1.053-0.142-1.72v0c-0.255-0.531-0.605-1-1.052-1.409-0.453-0.405-0.999-0.698-1.639-0.876v0l-7.285 3.496 0.262 1.662c-0.251 0.173-0.52 0.261-0.808 0.262v0c-0.159-0.41-0.326-0.823-0.503-1.239-0.174-0.425-0.358-0.842-0.554-1.249v0c-0.192-0.401-0.417-0.837-0.672-1.306-0.247-0.466-0.481-0.893-0.705-1.279v0c0.257-0.176 0.516-0.286 0.777-0.327v0c0.198 0.224 0.395 0.452 0.59 0.685 0.186 0.23 0.377 0.438 0.573 0.624v0l8.452-4.055-0.685-1.88c0.269-0.182 0.54-0.267 0.812-0.253v0c0.341 0.489 0.685 0.962 1.033 1.417 0.342 0.459 0.673 0.896 0.994 1.311v0c0.106 0.253 0.16 0.531 0.161 0.834z" fill="#ff0000" data-fill-palette-color="primary"></path><path d="M27.67 206.646v0c1.057-0.672 2.131-1.062 3.222-1.171 1.087-0.115 2.113 0.065 3.078 0.539 0.962 0.468 1.773 1.221 2.434 2.261v0c0.672 1.057 1.013 2.118 1.024 3.182 0.014 1.069-0.261 2.072-0.828 3.007-0.562 0.941-1.372 1.747-2.429 2.418v0c-1.081 0.686-2.166 1.084-3.256 1.193-1.087 0.115-2.103-0.067-3.048-0.546-0.947-0.469-1.756-1.232-2.427-2.29v0c-0.661-1.04-1.004-2.091-1.03-3.153-0.035-1.064 0.23-2.064 0.796-2.999 0.562-0.941 1.383-1.754 2.464-2.441zM32.501 214.866v0c0.907-0.576 1.663-1.198 2.269-1.867 0.607-0.678 0.995-1.37 1.163-2.077 0.164-0.712 0.022-1.421-0.426-2.126v0c-0.455-0.717-1.035-1.151-1.74-1.303-0.705-0.152-1.471-0.088-2.298 0.194-0.83 0.276-1.679 0.689-2.545 1.24v0c-0.786 0.499-1.455 1.066-2.009 1.702-0.553 0.635-0.897 1.308-1.03 2.016-0.131 0.7 0.021 1.393 0.458 2.081v0c0.466 0.734 1.034 1.18 1.702 1.34 0.672 0.165 1.396 0.123 2.171-0.126 0.778-0.243 1.54-0.601 2.285-1.074z" fill="#ff0000" data-fill-palette-color="primary"></path><path d="M39.453 233.384l4.554-7.993-8.248 3.244c-0.118-0.042-0.289-0.134-0.512-0.275-0.214-0.141-0.368-0.265-0.463-0.373v0l5.733-10.875-0.851-1.71c0.195-0.234 0.432-0.39 0.708-0.469v0c0.273 0.344 0.574 0.726 0.905 1.146 0.325 0.425 0.636 0.807 0.933 1.148v0c0.306 0.351 0.654 0.724 1.045 1.119 0.385 0.4 0.732 0.761 1.04 1.083v0c-0.201 0.239-0.423 0.41-0.669 0.514v0c-0.241-0.172-0.483-0.346-0.728-0.522-0.25-0.172-0.491-0.308-0.722-0.406v0l-2.623 4.646c-0.281 0.5-0.588 1.013-0.92 1.539-0.332 0.526-0.659 1.015-0.981 1.469v0l0.047 0.054c0.517-0.261 1.047-0.518 1.589-0.773 0.546-0.249 1.065-0.471 1.559-0.665v0l4.1-1.547 0.55-0.916-0.858-1.718c0.195-0.234 0.434-0.388 0.715-0.461v0c0.268 0.338 0.561 0.71 0.878 1.115 0.312 0.409 0.616 0.784 0.913 1.125v0c0.306 0.351 0.625 0.69 0.957 1.018 0.322 0.328 0.639 0.655 0.952 0.982v0c-0.201 0.239-0.423 0.41-0.669 0.515v0c-0.241-0.172-0.483-0.351-0.727-0.537-0.249-0.192-0.49-0.322-0.723-0.391v0l-2.894 4.664c-0.331 0.516-0.65 1.026-0.955 1.529-0.306 0.503-0.631 1-0.975 1.491v0l0.047 0.054c0.498-0.262 1.003-0.511 1.514-0.749 0.51-0.227 1.028-0.456 1.553-0.687v0l5.22-2.279-0.858-1.718c0.195-0.234 0.434-0.388 0.716-0.46v0c0.268 0.338 0.511 0.653 0.728 0.944 0.213 0.296 0.465 0.611 0.758 0.947v0c0.306 0.351 0.602 0.664 0.89 0.941 0.277 0.276 0.57 0.575 0.877 0.897v0c-0.196 0.244-0.417 0.418-0.661 0.522v0c-0.254-0.187-0.501-0.371-0.741-0.552-0.24-0.181-0.488-0.319-0.743-0.415v0l-10.942 4.437c-0.123-0.047-0.299-0.139-0.527-0.276-0.233-0.142-0.397-0.267-0.491-0.376z" fill="#ff0000" data-fill-palette-color="primary"></path><path d="M64.032 244.374l-3.91 5.218 1.387 1.642c-0.142 0.27-0.343 0.47-0.604 0.6v0c-0.325-0.286-0.727-0.622-1.208-1.008-0.477-0.391-0.896-0.722-1.257-0.993v0c-0.356-0.267-0.803-0.584-1.339-0.952-0.533-0.373-0.99-0.682-1.372-0.926v0c0.146-0.275 0.328-0.49 0.545-0.643v0c0.286 0.155 0.574 0.306 0.865 0.455 0.294 0.144 0.615 0.247 0.962 0.31v0l3.62-4.832 0.897-9.81-1.19-1.495c0.146-0.275 0.345-0.477 0.595-0.606v0c0.337 0.27 0.739 0.601 1.206 0.994 0.467 0.393 0.881 0.725 1.243 0.995v0c0.247 0.185 0.538 0.39 0.873 0.616 0.337 0.235 0.677 0.473 1.019 0.712 0.346 0.234 0.639 0.432 0.877 0.593v0c-0.142 0.27-0.324 0.484-0.546 0.643v0c-0.286-0.155-0.577-0.308-0.873-0.462-0.296-0.153-0.619-0.258-0.969-0.315v0l-0.923 7.841 0.074 0.055 7.291-3.069-1.19-1.495c0.146-0.275 0.345-0.477 0.596-0.606v0c0.342 0.274 0.69 0.564 1.041 0.87 0.352 0.306 0.706 0.593 1.062 0.86v0c0.373 0.279 0.731 0.526 1.075 0.741 0.338 0.211 0.692 0.446 1.062 0.706v0c-0.142 0.27-0.324 0.484-0.546 0.643v0c-0.297-0.163-0.609-0.328-0.937-0.497-0.331-0.163-0.661-0.277-0.988-0.342v0z" fill="#ff0000" data-fill-palette-color="primary"></path><path d="M70.391 251.054v0c0.627-1.084 1.399-1.927 2.315-2.527 0.911-0.604 1.904-0.919 2.979-0.947 1.069-0.03 2.137 0.263 3.204 0.88v0c1.084 0.627 1.877 1.41 2.378 2.348 0.507 0.942 0.726 1.958 0.657 3.049-0.063 1.094-0.409 2.183-1.036 3.268v0c-0.641 1.108-1.42 1.963-2.336 2.563-0.911 0.604-1.896 0.912-2.955 0.925-1.056 0.022-2.127-0.281-3.211-0.908v0c-1.067-0.617-1.857-1.39-2.371-2.32-0.523-0.927-0.75-1.936-0.681-3.028 0.063-1.094 0.415-2.195 1.057-3.303zM78.475 256.109v0c0.538-0.93 0.921-1.832 1.149-2.705 0.225-0.882 0.249-1.675 0.071-2.378-0.184-0.707-0.637-1.27-1.361-1.688v0c-0.735-0.425-1.45-0.542-2.145-0.352-0.696 0.191-1.345 0.602-1.948 1.235-0.609 0.629-1.17 1.387-1.684 2.276v0c-0.466 0.806-0.798 1.618-0.994 2.437-0.197 0.819-0.191 1.574 0.019 2.265 0.207 0.681 0.663 1.226 1.368 1.633v0c0.753 0.435 1.462 0.569 2.129 0.401 0.672-0.165 1.295-0.536 1.866-1.115 0.578-0.575 1.088-1.245 1.53-2.009z" fill="#ff0000" data-fill-palette-color="primary"></path><path d="M96.704 257.407l-4.212 10.003c0.191 0.251 0.41 0.455 0.656 0.61 0.246 0.156 0.484 0.315 0.712 0.479v0c-0.07 0.29-0.217 0.533-0.44 0.728v0c-0.252-0.054-0.546-0.133-0.881-0.237-0.329-0.101-0.663-0.224-1.004-0.368v0c-0.473-0.199-0.868-0.417-1.184-0.654v0l0.315-1.806-0.113-0.048c-1.038 0.365-1.934 0.545-2.689 0.539-0.755-0.006-1.508-0.167-2.259-0.484v0c-1.066-0.449-1.709-1.065-1.929-1.848-0.211-0.787-0.098-1.698 0.337-2.732v0l2.854-6.776-1.543-0.861c0.081-0.315 0.224-0.559 0.431-0.732v0c0.568 0.15 1.107 0.273 1.617 0.368 0.506 0.087 1.013 0.17 1.521 0.251v0c0.14 0.074 0.268 0.157 0.384 0.251 0.117 0.094 0.236 0.207 0.358 0.34v0l-3.268 7.76c-0.26 0.618-0.362 1.114-0.303 1.488 0.058 0.374 0.225 0.674 0.5 0.901 0.267 0.231 0.599 0.43 0.996 0.598v0c0.473 0.199 1.028 0.266 1.665 0.2 0.634-0.06 1.203-0.21 1.706-0.452v0l3.005-7.135-1.543-0.861c0.081-0.315 0.228-0.558 0.441-0.728v0c0.562 0.147 1.097 0.269 1.606 0.364 0.506 0.087 1.013 0.17 1.521 0.251v0c0.14 0.074 0.268 0.157 0.385 0.251 0.123 0.096 0.242 0.21 0.358 0.34z" fill="#ff0000" data-fill-palette-color="primary"></path><path d="M103.15 263.651l-1.978 6.61 2.104 1.134c-0.04 0.302-0.16 0.559-0.36 0.771v0c-0.27-0.102-0.606-0.221-1.008-0.356-0.403-0.135-0.801-0.272-1.195-0.411-0.396-0.133-0.742-0.243-1.037-0.332v0c-0.426-0.128-0.899-0.255-1.418-0.382-0.511-0.131-0.984-0.245-1.421-0.339v0c0.042-0.309 0.136-0.574 0.281-0.795v0c0.319 0.01 0.628 0.027 0.928 0.053 0.302 0.019 0.576 0.008 0.824-0.032v0l2.688-8.981-1.852-0.758c0.046-0.322 0.166-0.579 0.36-0.772v0c0.574 0.086 1.156 0.16 1.744 0.223 0.597 0.057 1.15 0.098 1.658 0.121v0c0.153 0.06 0.273 0.125 0.36 0.193 0.087 0.069 0.198 0.163 0.333 0.282v0l-0.63 2.105 0.014 0.026c0.691-0.565 1.405-1.005 2.142-1.32 0.737-0.315 1.444-0.372 2.12-0.17v0c0.262 0.079 0.512 0.175 0.749 0.289 0.244 0.116 0.468 0.287 0.672 0.512v0c-0.162 0.637-0.371 1.229-0.627 1.774-0.256 0.545-0.547 1.062-0.872 1.55v0c-0.115-0.02-0.287-0.068-0.514-0.143-0.228-0.075-0.394-0.164-0.499-0.267v0l0.374-2.396c-0.538-0.161-1.141-0.127-1.809 0.101-0.662 0.231-1.372 0.8-2.13 1.71z" fill="#ff0000" data-fill-palette-color="primary"></path><path d="M122.963 258.952l0.463 1.303 6.314 10.323c0.225 0.384 0.418 0.784 0.577 1.202 0.152 0.424 0.3 0.854 0.443 1.29v0l0.072 0.008c0.03-0.389 0.045-0.76 0.043-1.111-0.001-0.358 0.024-0.759 0.074-1.2v0l1.062-9.583-1.792-0.689c-0.013-0.311 0.059-0.586 0.217-0.822v0c0.427 0.062 0.819 0.13 1.175 0.205 0.357 0.075 0.756 0.137 1.198 0.187v0c0.463 0.052 0.907 0.085 1.332 0.099 0.426 0.014 0.864 0.039 1.314 0.076v0c0.014 0.305-0.035 0.582-0.145 0.831v0c-0.327 0.025-0.65 0.054-0.971 0.087-0.327 0.025-0.657 0.084-0.991 0.177v0l-1.81 16.008c-0.065 0.027-0.141 0.06-0.228 0.098-0.087 0.038-0.18 0.066-0.278 0.083v0l-8.146-13.135c-0.22-0.369-0.417-0.757-0.592-1.162-0.181-0.406-0.368-0.83-0.559-1.273v0l-0.071-0.008c0.02 0.374 0.009 0.773-0.032 1.195-0.041 0.422-0.081 0.811-0.121 1.165v0l-1.14 10.08 1.791 0.709c0.013 0.311-0.059 0.586-0.217 0.823v0c-0.425-0.082-0.836-0.16-1.235-0.233-0.391-0.079-0.81-0.143-1.259-0.194v0c-0.442-0.05-0.848-0.082-1.219-0.096-0.37-0.021-0.781-0.04-1.234-0.057v0c-0.013-0.311 0.036-0.588 0.146-0.831v0c0.325-0.011 0.645-0.041 0.961-0.088 0.322-0.046 0.642-0.106 0.96-0.18v0l1.621-14.336-1.793-0.688c-0.013-0.311 0.059-0.586 0.217-0.823v0c0.427 0.062 0.907 0.14 1.441 0.236 0.527 0.094 1.015 0.166 1.463 0.217v0z" fill="#ff0000" data-fill-palette-color="primary"></path><path d="M140.079 270.602l0.008 0.483c0.026 1.615 0.371 2.863 1.035 3.742 0.664 0.879 1.558 1.31 2.681 1.292v0c0.493-0.008 0.906-0.042 1.241-0.102 0.335-0.06 0.665-0.175 0.99-0.345 0.326-0.163 0.695-0.391 1.109-0.685v0c0.262 0.105 0.412 0.295 0.45 0.568v0c-0.49 0.583-1.079 1.041-1.765 1.373-0.679 0.333-1.375 0.505-2.086 0.517v0c-1.211 0.019-2.28-0.22-3.205-0.719-0.919-0.499-1.642-1.227-2.172-2.184-0.529-0.95-0.804-2.089-0.824-3.416v0c-0.022-1.369 0.226-2.533 0.745-3.494 0.525-0.96 1.236-1.701 2.131-2.221 0.895-0.521 1.897-0.79 3.006-0.808v0c1.424-0.023 2.485 0.439 3.185 1.386 0.693 0.941 1.051 2.164 1.076 3.67v0c0.002 0.11 0.003 0.216 0.005 0.318 0.002 0.096-0.004 0.199-0.016 0.308v0l-0.334 0.273zM143.409 265.64v0c-0.459 0.007-0.915 0.158-1.369 0.453-0.454 0.295-0.851 0.736-1.191 1.324-0.347 0.581-0.578 1.313-0.694 2.198v0l5.242-0.371c-0.02-1.239-0.168-2.15-0.444-2.735-0.27-0.591-0.784-0.881-1.544-0.869z" fill="#ff0000" data-fill-palette-color="primary"></path><path d="M154.517 264.26l1.136 10.742 1.654 0.311c0.079 0.294 0.068 0.578-0.034 0.85v0c-0.432 0.011-0.878 0.031-1.336 0.059-0.459 0.021-0.91 0.055-1.352 0.101v0c-0.449 0.048-0.935 0.113-1.456 0.195-0.522 0.076-1.006 0.155-1.452 0.236v0c-0.08-0.301-0.093-0.582-0.037-0.842v0c0.291-0.113 0.579-0.216 0.865-0.309 0.292-0.1 0.545-0.216 0.758-0.348v0l-0.985-9.323-2.012 0.017c-0.081-0.315-0.07-0.598 0.034-0.851v0c0.563-0.142 1.132-0.299 1.706-0.469 0.566-0.177 1.092-0.353 1.575-0.528v0c0.158-0.003 0.311 0.008 0.458 0.034 0.147 0.026 0.307 0.067 0.478 0.125zM152.657 261.999v0c-0.272 0.029-0.53-0.033-0.773-0.186-0.243-0.153-0.44-0.349-0.589-0.588-0.157-0.245-0.247-0.48-0.271-0.705v0c-0.022-0.204 0.045-0.425 0.199-0.661 0.155-0.23 0.353-0.437 0.595-0.621 0.25-0.178 0.5-0.28 0.752-0.306v0c0.286-0.03 0.551 0.035 0.795 0.194 0.244 0.16 0.44 0.356 0.589 0.589 0.142 0.24 0.225 0.468 0.248 0.686v0c0.022 0.211-0.036 0.438-0.176 0.679-0.147 0.236-0.346 0.439-0.596 0.611-0.243 0.177-0.5 0.28-0.773 0.308z" fill="#ff0000" data-fill-palette-color="primary"></path><path d="M165.338 270.507v0c-0.289 0.057-0.585 0.094-0.889 0.111-0.31 0.019-0.629 0.012-0.956-0.022v0c-0.115 0.267-0.189 0.477-0.222 0.629-0.04 0.154-0.05 0.278-0.032 0.373v0c0.029 0.148 0.114 0.281 0.257 0.4 0.135 0.12 0.451 0.201 0.947 0.243 0.503 0.041 1.301 0.017 2.393-0.071v0c1.08-0.079 1.992-0.087 2.736-0.024 0.753 0.069 1.35 0.287 1.792 0.654 0.45 0.372 0.755 0.968 0.915 1.787v0c0.138 0.705 0.085 1.343-0.158 1.915-0.251 0.572-0.633 1.08-1.146 1.522-0.52 0.444-1.11 0.814-1.77 1.111-0.662 0.29-1.345 0.504-2.051 0.642v0c-1.196 0.234-2.197 0.284-3.005 0.149-0.801-0.136-1.426-0.408-1.876-0.815-0.444-0.415-0.72-0.898-0.828-1.449v0c-0.111-0.564-0.063-1.156 0.144-1.775 0.2-0.618 0.692-1.185 1.477-1.702v0c-0.607-0.355-0.967-0.825-1.082-1.41v0c-0.101-0.517-0.088-0.963 0.042-1.337 0.128-0.381 0.296-0.714 0.505-0.999v0c-0.692-0.185-1.303-0.509-1.833-0.97-0.537-0.46-0.885-1.1-1.045-1.919v0c-0.147-0.752-0.121-1.42 0.078-2.003 0.194-0.575 0.506-1.069 0.934-1.481 0.429-0.412 0.914-0.744 1.458-0.997 0.55-0.254 1.101-0.435 1.651-0.543v0c0.376-0.074 0.776-0.117 1.199-0.13 0.422-0.02 0.836 0.011 1.242 0.091v0l2.755-2.548c0.141 0.042 0.287 0.164 0.437 0.364 0.156 0.193 0.289 0.407 0.399 0.644 0.108 0.23 0.163 0.425 0.166 0.584v0c-0.396 0.224-0.843 0.448-1.343 0.672-0.494 0.222-1.006 0.399-1.539 0.531v0c0.563 0.204 1.061 0.538 1.494 1.005 0.441 0.472 0.739 1.1 0.893 1.886v0c0.136 0.692 0.098 1.317-0.114 1.875-0.212 0.558-0.538 1.044-0.98 1.458-0.443 0.408-0.932 0.744-1.466 1.009-0.535 0.258-1.062 0.438-1.579 0.54zM165.162 269.61v0c0.799-0.157 1.401-0.574 1.805-1.254 0.412-0.674 0.53-1.461 0.354-2.36v0c-0.191-0.974-0.602-1.685-1.234-2.134-0.625-0.45-1.337-0.596-2.137-0.439v0c-0.806 0.158-1.414 0.563-1.823 1.215-0.409 0.652-0.519 1.465-0.328 2.439v0c0.176 0.9 0.579 1.585 1.208 2.055 0.63 0.476 1.349 0.636 2.155 0.478zM166.431 274.216v0c-0.291 0.008-0.66 0.032-1.106 0.07-0.439 0.037-0.892 0.042-1.357 0.015v0c-0.314 0.389-0.534 0.781-0.659 1.176-0.133 0.389-0.141 0.882-0.024 1.48v0c0.13 0.665 0.532 1.2 1.204 1.605 0.666 0.407 1.532 0.505 2.6 0.296v0c0.773-0.151 1.41-0.405 1.912-0.761 0.501-0.363 0.858-0.768 1.07-1.214 0.218-0.454 0.289-0.876 0.213-1.266v0c-0.093-0.477-0.327-0.815-0.701-1.014-0.375-0.206-0.842-0.33-1.402-0.374-0.554-0.052-1.138-0.056-1.75-0.013z" fill="#ff0000" data-fill-palette-color="primary"></path><path d="M173.43 254.145l2.224 6.867 0.117-0.038c0.481-0.847 1.005-1.506 1.572-1.977 0.56-0.469 1.101-0.788 1.622-0.957v0c1.25-0.405 2.269-0.371 3.055 0.101 0.78 0.474 1.342 1.245 1.688 2.313v0l2.326 7.18 1.799-0.076c0.138 0.272 0.186 0.551 0.142 0.839v0c-0.421 0.1-0.872 0.218-1.353 0.352-0.477 0.126-0.931 0.258-1.361 0.398v0c-0.423 0.137-0.885 0.301-1.384 0.491-0.495 0.182-0.949 0.358-1.362 0.528v0c-0.141-0.278-0.214-0.55-0.22-0.814v0c0.252-0.154 0.508-0.308 0.767-0.464 0.25-0.16 0.479-0.331 0.686-0.514v0l-2.215-6.838c-0.209-0.645-0.465-1.102-0.767-1.37-0.312-0.273-0.651-0.411-1.02-0.415-0.377-0.008-0.77 0.055-1.18 0.188v0c-0.488 0.158-0.956 0.446-1.404 0.865-0.449 0.412-0.782 0.872-0.999 1.381v0l2.535 7.825 1.682-0.038c0.138 0.272 0.186 0.551 0.142 0.839v0c-0.421 0.1-0.853 0.211-1.295 0.333-0.445 0.115-0.879 0.241-1.302 0.379v0c-0.43 0.139-0.891 0.303-1.384 0.491-0.502 0.184-0.959 0.361-1.372 0.531v0c-0.141-0.278-0.214-0.55-0.22-0.814v0c0.268-0.173 0.532-0.334 0.793-0.483 0.265-0.158 0.485-0.323 0.66-0.495v0l-4.714-14.555-1.952 0.438c-0.145-0.291-0.192-0.571-0.142-0.839v0c1.039-0.524 2.002-1.062 2.887-1.615v0c0.154-0.035 0.306-0.056 0.456-0.061 0.149-0.005 0.314 0.003 0.493 0.024z" fill="#ff0000" data-fill-palette-color="primary"></path><path d="M186.791 249.253l2.936 6.324 0.163 0.059c0.341-0.777 0.746-1.384 1.216-1.82 0.469-0.437 0.952-0.77 1.448-1.001v0c0.944-0.438 1.865-0.583 2.764-0.434 0.899 0.149 1.732 0.562 2.5 1.239 0.767 0.678 1.421 1.597 1.96 2.758v0c0.588 1.267 0.832 2.451 0.733 3.554-0.096 1.109-0.479 2.09-1.147 2.944-0.671 0.863-1.587 1.563-2.748 2.102v0c-0.596 0.277-1.32 0.522-2.171 0.736-0.842 0.218-1.628 0.337-2.358 0.359v0l-6.767-14.575-1.894 0.676c-0.179-0.272-0.26-0.543-0.243-0.816v0c0.487-0.317 0.95-0.637 1.388-0.961 0.429-0.328 0.841-0.651 1.236-0.97v0c0.285-0.117 0.613-0.175 0.984-0.174zM190.478 256.903l3.533 7.609c0.386 0.002 0.762-0.025 1.128-0.082 0.36-0.054 0.788-0.196 1.285-0.427v0c1.031-0.478 1.642-1.291 1.834-2.436 0.19-1.152-0.083-2.52-0.818-4.104v0c-0.709-1.527-1.514-2.512-2.413-2.955-0.903-0.434-1.746-0.469-2.528-0.105v0c-0.366 0.17-0.692 0.404-0.976 0.702-0.284 0.298-0.52 0.611-0.707 0.94-0.181 0.326-0.293 0.612-0.338 0.858z" fill="#ff0000" data-fill-palette-color="primary"></path><path d="M202.877 254.649v0c-0.655-1.068-1.028-2.148-1.12-3.24-0.098-1.089 0.098-2.112 0.586-3.07 0.482-0.955 1.249-1.754 2.299-2.398v0c1.068-0.655 2.134-0.98 3.198-0.974 1.07 0.002 2.067 0.294 2.993 0.874 0.932 0.577 1.726 1.399 2.381 2.466v0c0.669 1.091 1.05 2.183 1.141 3.275 0.098 1.089-0.1 2.101-0.593 3.039-0.484 0.939-1.26 1.736-2.327 2.391v0c-1.05 0.644-2.107 0.971-3.169 0.981-1.065 0.019-2.06-0.262-2.987-0.843-0.932-0.577-1.733-1.411-2.402-2.501zM211.171 249.946v0c-0.562-0.916-1.172-1.682-1.831-2.298-0.668-0.618-1.354-1.016-2.058-1.195-0.71-0.175-1.42-0.044-2.132 0.393v0c-0.724 0.444-1.167 1.017-1.331 1.72-0.163 0.703-0.111 1.469 0.159 2.3 0.263 0.834 0.663 1.689 1.2 2.564v0c0.487 0.794 1.044 1.472 1.67 2.035 0.627 0.563 1.293 0.917 2 1.062 0.698 0.142 1.394 0 2.088-0.426v0c0.741-0.455 1.196-1.015 1.366-1.681 0.175-0.67 0.145-1.394-0.092-2.172-0.231-0.782-0.577-1.549-1.039-2.302z" fill="#ff0000" data-fill-palette-color="primary"></path><path d="M220.99 234.533l6.792 8.465c0.312-0.049 0.595-0.144 0.849-0.286 0.254-0.143 0.507-0.275 0.76-0.399v0c0.222 0.2 0.365 0.444 0.431 0.734v0c-0.168 0.196-0.377 0.416-0.628 0.661-0.246 0.241-0.513 0.477-0.801 0.709v0c-0.4 0.321-0.78 0.564-1.139 0.729v0l-1.438-1.136-0.097 0.077c-0.173 1.086-0.442 1.96-0.806 2.621-0.365 0.661-0.865 1.247-1.5 1.756v0c-0.902 0.724-1.75 0.996-2.544 0.817-0.792-0.189-1.54-0.722-2.242-1.597v0l-4.601-5.735-1.491 0.946c-0.239-0.221-0.385-0.463-0.439-0.727v0c0.402-0.428 0.767-0.843 1.093-1.246 0.317-0.403 0.632-0.81 0.945-1.218v0c0.131-0.088 0.266-0.161 0.404-0.219 0.138-0.058 0.294-0.109 0.469-0.153v0l5.269 6.568c0.42 0.523 0.808 0.848 1.164 0.975 0.356 0.127 0.7 0.123 1.031-0.011 0.33-0.124 0.663-0.322 1-0.592v0c0.4-0.321 0.723-0.778 0.968-1.369 0.249-0.586 0.388-1.158 0.415-1.715v0l-4.845-6.039-1.491 0.947c-0.239-0.221-0.382-0.466-0.431-0.734v0c0.397-0.424 0.759-0.837 1.085-1.239 0.317-0.403 0.632-0.81 0.945-1.219v0c0.131-0.088 0.266-0.161 0.404-0.219 0.143-0.062 0.3-0.113 0.469-0.153z" fill="#ff0000" data-fill-palette-color="primary"></path><path d="M229.549 231.835l4.872 4.887 1.999-1.311c0.247 0.179 0.416 0.407 0.507 0.683v0c-0.218 0.188-0.482 0.428-0.793 0.717-0.31 0.29-0.62 0.575-0.93 0.856-0.305 0.285-0.567 0.536-0.786 0.754v0c-0.315 0.314-0.652 0.669-1.011 1.065-0.359 0.387-0.684 0.749-0.974 1.088v0c-0.251-0.184-0.44-0.393-0.566-0.625v0c0.16-0.276 0.323-0.539 0.488-0.791 0.16-0.256 0.282-0.503 0.364-0.74v0l-6.618-6.639-1.549 1.268c-0.261-0.194-0.43-0.422-0.507-0.683v0c0.349-0.464 0.691-0.94 1.026-1.429 0.335-0.498 0.633-0.965 0.895-1.4v0c0.126-0.106 0.24-0.181 0.342-0.225 0.102-0.043 0.237-0.096 0.407-0.159v0l1.551 1.557 0.029 0c-0.168-0.876-0.215-1.714-0.141-2.513 0.074-0.799 0.36-1.447 0.86-1.944v0c0.194-0.193 0.397-0.367 0.61-0.522 0.218-0.159 0.475-0.275 0.77-0.347v0c0.483 0.446 0.904 0.911 1.262 1.396 0.357 0.485 0.674 0.986 0.948 1.504v0c-0.073 0.092-0.196 0.22-0.371 0.384-0.175 0.164-0.332 0.268-0.472 0.312v0l-1.929-1.47c-0.398 0.396-0.655 0.943-0.772 1.64-0.112 0.692 0.051 1.588 0.489 2.687z" fill="#ff0000" data-fill-palette-color="primary"></path><path d="M229.591 217.182l5.627 4.521 0.077-0.096c-0.062-0.972 0.014-1.81 0.23-2.516 0.211-0.7 0.488-1.263 0.831-1.69v0c0.823-1.025 1.693-1.555 2.609-1.591 0.912-0.031 1.806 0.305 2.681 1.007v0l5.883 4.727 1.463-1.05c0.265 0.151 0.458 0.359 0.58 0.623v0c-0.297 0.315-0.61 0.66-0.939 1.037-0.33 0.367-0.637 0.727-0.92 1.079v0c-0.279 0.347-0.575 0.737-0.887 1.171-0.314 0.424-0.597 0.82-0.849 1.188v0c-0.27-0.156-0.48-0.342-0.631-0.56v0c0.127-0.267 0.256-0.537 0.386-0.809 0.121-0.271 0.219-0.54 0.292-0.806v0l-5.603-4.501c-0.528-0.424-0.993-0.666-1.393-0.725-0.41-0.058-0.77 0.013-1.08 0.213-0.319 0.2-0.614 0.469-0.884 0.804v0c-0.322 0.4-0.555 0.898-0.699 1.494-0.15 0.591-0.176 1.159-0.077 1.702v0l6.411 5.152 1.386-0.955c0.265 0.151 0.458 0.359 0.58 0.624v0c-0.297 0.315-0.597 0.644-0.901 0.989-0.309 0.34-0.602 0.684-0.88 1.031v0c-0.283 0.352-0.579 0.742-0.888 1.17-0.318 0.429-0.604 0.828-0.856 1.196v0c-0.27-0.156-0.48-0.342-0.63-0.559v0c0.129-0.292 0.262-0.571 0.397-0.84 0.135-0.278 0.229-0.536 0.281-0.775v0l-11.927-9.583-1.391 1.437c-0.281-0.164-0.474-0.372-0.579-0.623v0c0.582-1.008 1.091-1.986 1.528-2.935v0c0.109-0.114 0.225-0.214 0.347-0.3 0.122-0.086 0.264-0.17 0.425-0.251z" fill="#ff0000" data-fill-palette-color="primary"></path><path d="M246.539 214.723v0c-1.062-0.665-1.877-1.466-2.445-2.403-0.572-0.931-0.852-1.935-0.841-3.01 0.007-1.07 0.338-2.127 0.991-3.171v0c0.665-1.062 1.475-1.827 2.43-2.295 0.959-0.474 1.982-0.657 3.07-0.549 1.091 0.102 2.168 0.485 3.229 1.149v0c1.085 0.679 1.912 1.487 2.48 2.425 0.572 0.931 0.845 1.926 0.821 2.985-0.015 1.056-0.355 2.116-1.02 3.177v0c-0.654 1.044-1.454 1.807-2.402 2.288-0.945 0.491-1.961 0.682-3.049 0.575-1.091-0.102-2.179-0.492-3.264-1.171zM251.874 206.821v0c-0.911-0.57-1.798-0.984-2.663-1.243-0.873-0.256-1.665-0.307-2.375-0.154-0.713 0.159-1.292 0.593-1.734 1.3v0c-0.45 0.719-0.592 1.43-0.426 2.132 0.166 0.702 0.555 1.365 1.165 1.989 0.607 0.63 1.345 1.218 2.216 1.763v0c0.789 0.494 1.59 0.854 2.401 1.079 0.812 0.226 1.566 0.246 2.264 0.061 0.688-0.183 1.248-0.62 1.68-1.311v0c0.461-0.737 0.62-1.441 0.475-2.113-0.141-0.678-0.491-1.313-1.049-1.904-0.555-0.598-1.206-1.131-1.954-1.599z" fill="#ff0000" data-fill-palette-color="primary"></path><path d="M254.535 201.364v0c-1.134-0.533-2.039-1.23-2.715-2.093-0.679-0.856-1.078-1.819-1.197-2.887-0.121-1.063 0.08-2.152 0.605-3.267v0c0.533-1.134 1.245-1.99 2.137-2.57 0.895-0.585 1.889-0.89 2.981-0.913 1.096-0.03 2.21 0.221 3.345 0.754v0c1.159 0.544 2.076 1.247 2.752 2.109 0.679 0.856 1.07 1.811 1.173 2.865 0.112 1.051-0.099 2.143-0.632 3.277v0c-0.524 1.115-1.227 1.969-2.11 2.56-0.879 0.6-1.865 0.912-2.958 0.936-1.096 0.03-2.223-0.227-3.381-0.771zM258.884 192.879v0c-0.973-0.457-1.903-0.762-2.793-0.915-0.898-0.149-1.69-0.106-2.376 0.132-0.689 0.244-1.211 0.743-1.566 1.499v0c-0.361 0.768-0.417 1.491-0.167 2.168 0.249 0.677 0.714 1.289 1.395 1.835 0.678 0.553 1.482 1.048 2.411 1.484v0c0.843 0.396 1.68 0.657 2.514 0.784 0.833 0.127 1.585 0.056 2.254-0.212 0.661-0.264 1.165-0.765 1.511-1.502v0c0.37-0.787 0.442-1.505 0.219-2.155-0.221-0.656-0.644-1.244-1.27-1.765-0.622-0.527-1.333-0.978-2.132-1.353z" fill="#ff0000" data-fill-palette-color="primary"></path><path d="M268.593 184.408v0c-0.279 0.852-0.792 1.549-1.538 2.09-0.74 0.543-1.626 0.876-2.661 0.998-1.034 0.122-2.13-0.006-3.288-0.386v0c-1.327-0.435-2.386-1.04-3.175-1.817-0.794-0.786-1.305-1.691-1.531-2.716-0.224-1.031-0.144-2.133 0.239-3.304v0c0.138-0.423 0.331-0.835 0.578-1.237 0.247-0.402 0.509-0.741 0.787-1.017v0l0.022-0.069-4.391-1.437-0.796 1.835c-0.321-0.055-0.575-0.181-0.761-0.379v0c0.189-1.148 0.32-2.243 0.394-3.285v0c0.107-0.282 0.288-0.561 0.545-0.837v0l15.935 5.218c0.162-0.098 0.334-0.294 0.516-0.588 0.182-0.293 0.335-0.582 0.457-0.866v0c0.308 0.05 0.562 0.177 0.762 0.379v0c-0.035 0.262-0.092 0.568-0.171 0.917-0.08 0.355-0.178 0.709-0.293 1.06v0c-0.164 0.501-0.351 0.919-0.562 1.253v0c-0.242 0.058-0.473 0.09-0.691 0.098-0.223-0.001-0.444-0.019-0.662-0.055v0l-0.039 0.117c0.338 0.816 0.529 1.531 0.573 2.143 0.044 0.612-0.039 1.241-0.249 1.885zM267.572 183.037v0c0.196-0.599 0.236-1.151 0.121-1.657-0.107-0.51-0.266-0.959-0.478-1.345v0l-7.953-2.604c-0.354 0.201-0.65 0.479-0.888 0.833-0.245 0.352-0.439 0.746-0.581 1.181v0c-0.39 1.19-0.224 2.224 0.497 3.102 0.728 0.879 1.862 1.571 3.404 2.076v0c1.568 0.513 2.853 0.635 3.856 0.366 1.01-0.267 1.684-0.918 2.022-1.952z" fill="#ff0000" data-fill-palette-color="primary"></path></g></svg></g></svg></g></svg></g><g></g></svg></g><defs></defs></svg><rect width="280" height="280" fill="none" stroke="none" visibility="hidden"></rect></g></svg></g></svg>